<?xml version="1.0" encoding="UTF-8" standalone="no"?><!DOCTYPE svg PUBLIC "-//W3C//DTD SVG 1.1//EN" "http://www.w3.org/Graphics/SVG/1.1/DTD/svg11.dtd"><svg width="100%" height="100%" viewBox="0 0 285 87" version="1.1" xmlns="http://www.w3.org/2000/svg" xmlns:xlink="http://www.w3.org/1999/xlink" xml:space="preserve" xmlns:serif="http://www.serif.com/" style="fill-rule:evenodd;clip-rule:evenodd;stroke-linejoin:round;stroke-miterlimit:2;"><rect id="Artboard1" x="0" y="0" width="284.038" height="86.019" style="fill:none;"/><circle cx="172.352" cy="5.378" r="4.615" style="fill:#fff;"/><rect x="170.843" y="8.319" width="3.019" height="12.521" style="fill:#fff;"/><g><path d="M32.617,72.998l-8.181,-36l6.836,-0l6.244,28.389l0.72,0l6.078,-28.389l8.718,-0l-8.377,36l-12.038,-0Zm-22.612,-0l-8.375,-36l8.717,-0l6.079,28.389l0.72,0l6.243,-28.389l6.837,-0l-8.182,36l-12.039,-0Z" style="fill:#fff;fill-rule:nonzero;"/><path d="M66.634,73.801c-4.035,-0 -6.94,-0.864 -8.716,-2.592c-1.776,-1.728 -2.664,-4.575 -2.664,-8.54c-0,-2.419 0.265,-4.384 0.795,-5.896c0.53,-1.512 1.511,-2.681 2.943,-3.506c1.433,-0.825 3.5,-1.388 6.201,-1.691c2.701,-0.303 6.21,-0.454 10.527,-0.454l3.489,0l-0,5.259l-10.229,0c-2.168,0 -3.649,0.272 -4.443,0.815c-0.794,0.543 -1.191,1.575 -1.191,3.097l0,7.003l8.125,0c2.167,0 3.639,-0.266 4.414,-0.797c0.776,-0.532 1.164,-1.548 1.164,-3.048l-0,-19.782c-1.533,-0.451 -3.676,-0.676 -6.428,-0.676c-1.938,-0 -3.972,0.144 -6.102,0.432c-2.131,0.288 -4.312,0.731 -6.546,1.328l-1.118,-6.332c1.344,-0.465 2.844,-0.869 4.499,-1.21c1.656,-0.342 3.396,-0.597 5.222,-0.765c1.825,-0.168 3.598,-0.252 5.319,-0.252c3.397,0 6.122,0.352 8.176,1.056c2.055,0.703 3.54,1.831 4.458,3.383c0.917,1.552 1.376,3.626 1.376,6.222l-0,26.143l-4.207,-0l-2.324,-3.6c-1.739,1.488 -3.656,2.594 -5.749,3.317c-2.094,0.724 -4.424,1.086 -6.991,1.086Z" style="fill:#fff;fill-rule:nonzero;"/><path d="M115.067,35.918c2.614,-0 4.792,0.298 6.532,0.894c1.74,0.596 3.127,1.619 4.159,3.068c1.032,1.449 1.764,3.401 2.198,5.857c0.433,2.455 0.65,5.542 0.65,9.261c0,3.681 -0.24,6.731 -0.719,9.15c-0.48,2.418 -1.297,4.334 -2.453,5.746c-1.155,1.412 -2.721,2.416 -4.698,3.013c-1.977,0.596 -4.457,0.894 -7.44,0.894c-2.641,-0 -4.818,-0.273 -6.531,-0.82c-1.714,-0.546 -3.049,-1.507 -4.007,-2.882c-0.959,-1.375 -1.625,-3.29 -2,-5.746c-0.374,-2.455 -0.561,-5.574 -0.561,-9.355c-0,-3.856 0.219,-7.021 0.658,-9.495c0.439,-2.474 1.2,-4.407 2.282,-5.801c1.082,-1.393 2.597,-2.372 4.547,-2.937c1.95,-0.565 4.411,-0.847 7.383,-0.847Zm4.158,7.03l-10.324,-0c-1.241,-0 -2.084,0.125 -2.529,0.376c-0.445,0.251 -0.667,0.742 -0.667,1.473l-0,21.974l10.324,-0c1.215,-0 2.051,-0.116 2.509,-0.349c0.458,-0.232 0.687,-0.64 0.687,-1.224l-0,-22.25Zm-22.376,-17.582l8.856,-0.913l-0,44.089l7.591,5.259c-3.115,-0 -5.929,-0.189 -8.439,-0.565c-2.511,-0.377 -5.18,-0.983 -8.008,-1.817l-0,-46.053Z" style="fill:#fff;fill-rule:nonzero;"/><path d="M221.854,36.998l2.852,5.473c1.983,-1.858 3.77,-3.295 5.361,-4.31c1.591,-1.016 3.153,-1.763 4.685,-2.243l0.753,8.645c-0.942,0.233 -1.986,0.582 -3.133,1.047c-1.146,0.465 -2.233,0.967 -3.259,1.504c-1.026,0.538 -1.914,1.091 -2.664,1.66l-0,24.224l-8.856,-0l-0,-36l4.261,-0Z" style="fill:#fff;fill-rule:nonzero;"/><path d="M245.902,36.998l2.852,5.473c1.983,-1.858 3.77,-3.295 5.361,-4.31c1.591,-1.016 3.153,-1.763 4.685,-2.243l0.753,8.645c-0.942,0.233 -1.986,0.582 -3.133,1.047c-1.146,0.465 -2.233,0.967 -3.259,1.504c-1.026,0.538 -1.914,1.091 -2.664,1.66l-0,24.224l-8.856,-0l-0,-36l4.261,-0Z" style="fill:#fff;fill-rule:nonzero;"/><path d="M273.922,73.801c-2.096,-0 -3.66,-0.488 -4.691,-1.465c-1.032,-0.976 -1.548,-2.476 -1.548,-4.499l0,-38.097l8.856,-2.214l0,39.001c0.705,0.07 1.433,0.141 2.185,0.213c0.751,0.072 1.661,0.132 2.728,0.18l-0.481,6.006c-1.521,0.309 -2.857,0.533 -4.007,0.67c-1.149,0.136 -2.163,0.205 -3.042,0.205Zm-10.948,-30.842l-0,-5.961l19.642,-0l0,5.961l-19.642,0Z" style="fill:#fff;fill-rule:nonzero;"/></g><path d="M212.581,32.08c-0,-9.599 -7.794,-17.393 -17.393,-17.393l-45.672,0c-9.599,0 -17.392,7.794 -17.392,17.393l-0,34.785c-0,9.599 7.793,17.393 17.392,17.393l45.672,-0c9.599,-0 17.393,-7.794 17.393,-17.393l-0,-34.785Zm-60.34,41.721c-3.153,-0 -5.791,-0.301 -7.914,-0.903c-2.122,-0.602 -3.807,-1.609 -5.052,-3.021c-1.246,-1.412 -2.133,-3.337 -2.661,-5.774c-0.528,-2.436 -0.792,-5.472 -0.792,-9.105c-0,-3.645 0.264,-6.686 0.792,-9.123c0.528,-2.437 1.415,-4.361 2.661,-5.773c1.245,-1.413 2.93,-2.417 5.052,-3.013c2.123,-0.596 4.761,-0.895 7.914,-0.895c3.201,0 5.863,0.299 7.986,0.895c2.123,0.596 3.798,1.6 5.025,3.013c1.228,1.412 2.103,3.327 2.625,5.745c0.522,2.419 0.783,5.469 0.783,9.151c-0,3.633 -0.261,6.669 -0.783,9.105c-0.522,2.437 -1.406,4.362 -2.652,5.774c-1.246,1.412 -2.93,2.419 -5.053,3.021c-2.123,0.602 -4.766,0.903 -7.931,0.903Zm39.888,-0c-3.153,-0 -5.791,-0.301 -7.914,-0.903c-2.122,-0.602 -3.807,-1.609 -5.052,-3.021c-1.246,-1.412 -2.133,-3.337 -2.661,-5.774c-0.528,-2.436 -0.792,-5.472 -0.792,-9.105c-0,-3.645 0.264,-6.686 0.792,-9.123c0.528,-2.437 1.415,-4.361 2.661,-5.773c1.245,-1.413 2.93,-2.417 5.052,-3.013c2.123,-0.596 4.761,-0.895 7.914,-0.895c3.201,0 5.863,0.299 7.986,0.895c2.123,0.596 3.798,1.6 5.025,3.013c1.228,1.412 2.103,3.327 2.625,5.745c0.522,2.419 0.783,5.469 0.783,9.151c-0,3.633 -0.261,6.669 -0.783,9.105c-0.522,2.437 -1.406,4.362 -2.652,5.774c-1.246,1.412 -2.93,2.419 -5.053,3.021c-2.123,0.602 -4.766,0.903 -7.931,0.903Zm-46.981,-7.03l10.879,-0c1.326,-0 2.209,-0.126 2.648,-0.377c0.44,-0.251 0.659,-0.742 0.659,-1.473l0,-21.696l-10.878,-0c-1.278,-0 -2.149,0.125 -2.613,0.376c-0.463,0.252 -0.695,0.743 -0.695,1.473l0,21.697Zm39.888,-0l10.879,-0c1.326,-0 2.209,-0.126 2.648,-0.377c0.44,-0.251 0.659,-0.742 0.659,-1.473l0,-21.696l-10.878,-0c-1.278,-0 -2.149,0.125 -2.613,0.376c-0.463,0.252 -0.695,0.743 -0.695,1.473l0,21.697Z" style="fill:#fff;"/></svg>