<svg version="1.1" xmlns="http://www.w3.org/2000/svg" viewBox="0 0 872.096821376256 105.02297537667471" width="1744.193642752512" height="210.04595075334942">
  <!-- svg-source:excalidraw -->
  
  <defs>
    <style>
      @font-face {
        font-family: "Virgil";
        src: url("https://excalidraw.com/Virgil.woff2");
      }
      @font-face {
        font-family: "Cascadia";
        src: url("https://excalidraw.com/Cascadia.woff2");
      }
    </style>
  </defs>
  <g stroke-linecap="round" transform="translate(346.1125335693357 10) rotate(0 86.0128173828125 41.35046386718744)"><path d="M19.78 0.11 L152.68 1.97 L164.7 1.35 L167.36 6.08 L172.05 16.52 L172.85 62.6 L167.26 74.91 L164.92 81.28 L153.01 82.11 L22.47 84 L9.73 80.77 L4.61 75.92 L0.45 67.54 L-1.36 15.37 L3.53 4.08 L12.17 0.12 L21.53 0.89" stroke="none" stroke-width="0" fill="#fab005"></path><path d="M20.68 0 M20.68 0 C63.65 1.99, 105.1 1.34, 151.35 0 M20.68 0 C62.8 1.24, 105.6 1.51, 151.35 0 M151.35 0 C166.57 -0.19, 170.21 8.38, 172.03 20.68 M151.35 0 C163.6 0.35, 170.45 6.73, 172.03 20.68 M172.03 20.68 C171.78 31.16, 171.19 42.18, 172.03 62.03 M172.03 20.68 C171.86 30.14, 172.2 38.54, 172.03 62.03 M172.03 62.03 C173.62 77.44, 165.69 83.2, 151.35 82.7 M172.03 62.03 C173.68 75.55, 166.53 82.21, 151.35 82.7 M151.35 82.7 C117.46 85.35, 85.69 84.85, 20.68 82.7 M151.35 82.7 C101.87 82.37, 52.43 83.31, 20.68 82.7 M20.68 82.7 C5.62 82.91, -1.72 73.85, 0 62.03 M20.68 82.7 C5.76 84.68, 0.72 73.94, 0 62.03 M0 62.03 C-1.94 47.73, -1.55 30.85, 0 20.68 M0 62.03 C0.57 50.55, 0.23 39.96, 0 20.68 M0 20.68 C1.73 5.92, 5.5 -1.01, 20.68 0 M0 20.68 C1.73 6.79, 4.99 -1.81, 20.68 0" stroke="#000000" stroke-width="2" fill="none"></path></g><g transform="translate(384.91636657714844 39.141479492187386) rotate(0 47.5 12.5)"><text x="47.5" y="18" font-family="Virgil, Segoe UI Emoji" font-size="20px" fill="#000000" text-anchor="middle" style="white-space: pre;" direction="ltr">botbuilder</text></g><g stroke-linecap="round" transform="translate(10 12.029693603515398) rotate(0 78.58148193359386 40.32006835937506)"><path d="M20.51 0.69 L137.83 0.57 L147.43 3.12 L155.3 9.36 L158.51 14.84 L158.96 61.78 L155.98 73.74 L150.99 79.1 L137.13 81.31 L18.48 80.18 L6.24 76.72 L3.38 71.6 L1.17 66.09 L0.81 14.15 L4.41 5.55 L12.92 0.76 L21.09 0.46" stroke="none" stroke-width="0" fill="#fab005"></path><path d="M20.16 0 M20.16 0 C46.16 1.04, 72.53 1.57, 137 0 M20.16 0 C53.43 -0.72, 87.35 -0.94, 137 0 M137 0 C149.93 -0.67, 159.04 6.61, 157.16 20.16 M137 0 C149.46 -0.8, 155.81 4.85, 157.16 20.16 M157.16 20.16 C157.9 32.87, 156.64 46.59, 157.16 60.48 M157.16 20.16 C158 35.44, 157.88 50.73, 157.16 60.48 M157.16 60.48 C156.19 72.99, 152.21 79.62, 137 80.64 M157.16 60.48 C158.88 73.99, 151.58 82.53, 137 80.64 M137 80.64 C105.71 83.02, 77.05 79.89, 20.16 80.64 M137 80.64 C100.22 80.36, 64.73 78.68, 20.16 80.64 M20.16 80.64 C8.23 82.33, 0.28 72.33, 0 60.48 M20.16 80.64 C8.14 79.26, -0.13 73, 0 60.48 M0 60.48 C-1.54 48.14, -1.19 36.24, 0 20.16 M0 60.48 C1.03 50.3, -0.55 39.42, 0 20.16 M0 20.16 C0.27 7.97, 5.83 -0.37, 20.16 0 M0 20.16 C1.05 6.56, 6.05 2.04, 20.16 0" stroke="#000000" stroke-width="2" fill="none"></path></g><g transform="translate(45.581481933593864 39.84976196289051) rotate(0 43 12.5)"><text x="43" y="18" font-family="Virgil, Segoe UI Emoji" font-size="20px" fill="#000000" text-anchor="middle" style="white-space: pre;" direction="ltr">gitserver</text></g><g transform="translate(188.17124938964912 26.85919189453182) rotate(0 55.5 10)"><text x="0" y="14" font-family="Virgil, Segoe UI Emoji" font-size="16px" fill="#000000" text-anchor="start" style="white-space: pre;" direction="ltr">requests build</text></g><g stroke-linecap="round"><g transform="translate(173.21463106465762 52.60116780804299) rotate(0 83.83733092343755 -0.9169957355609881)"><path d="M-0.25 -0.17 C27.8 -0.25, 139.85 -0.06, 167.93 -0.17 M1.82 -1.3 C29.8 -1.72, 139.61 -1.43, 167.3 -1.7" stroke="#000000" stroke-width="2" fill="none"></path></g><g transform="translate(173.21463106465762 52.60116780804299) rotate(0 83.83733092343755 -0.9169957355609881)"><path d="M138.86 9.66 C148.53 7.47, 154.99 3.37, 165.58 -2.92 M139.8 8.95 C145.53 5.54, 151.24 3.76, 166.73 -2.36" stroke="#000000" stroke-width="2" fill="none"></path></g><g transform="translate(173.21463106465762 52.60116780804299) rotate(0 83.83733092343755 -0.9169957355609881)"><path d="M138.8 -10.86 C148.55 -7.56, 155.02 -6.18, 165.58 -2.92 M139.74 -11.57 C145.41 -10.3, 151.14 -7.39, 166.73 -2.36" stroke="#000000" stroke-width="2" fill="none"></path></g></g><g stroke-linecap="round" transform="translate(677.972309657506 12.491969517299822) rotate(0 92.062255859375 41.26550292968744)"><path d="M20.63 0 M20.63 0 C68.32 -0.98, 119.08 1.22, 163.49 0 M163.49 0 C176.75 0.93, 184.59 5.3, 184.12 20.63 M184.12 20.63 C184.99 30.07, 185.52 37.9, 184.12 61.9 M184.12 61.9 C182.31 77.14, 175.92 82.83, 163.49 82.53 M163.49 82.53 C129.77 84.04, 97.28 81.31, 20.63 82.53 M20.63 82.53 C6.18 81.35, -1.63 75.81, 0 61.9 M0 61.9 C0.38 50.31, 1.68 41.16, 0 20.63 M0 20.63 C0.56 7.38, 8.32 -0.23, 20.63 0" stroke="#000000" stroke-width="2.5" fill="none" stroke-dasharray="8 10"></path></g><g transform="translate(697.6188289097381 40.8419102260051) rotate(0 72 12.5)"><text x="72" y="18" font-family="Virgil, Segoe UI Emoji" font-size="20px" fill="#000000" text-anchor="middle" style="white-space: pre;" direction="ltr">Image for Bot</text></g><g stroke-linecap="round"><g transform="translate(524.5594493707797 52.76070264473765) rotate(0 72.82909895218404 0.34457031935903615)"><path d="M-0.17 1.09 C24.46 0.88, 123.03 -0.1, 147.38 -0.4 M-1.72 0.62 C22.84 0.52, 121.71 1.1, 146.73 1.06" stroke="#000000" stroke-width="2" fill="none"></path></g><g transform="translate(524.5594493707797 52.76070264473765) rotate(0 72.82909895218404 0.34457031935903615)"><path d="M120.33 12.19 C125.62 7.17, 132.55 7.33, 147.08 2.04 M118 10.45 C128.87 6.79, 139.73 3.84, 146.53 1.4" stroke="#000000" stroke-width="2" fill="none"></path></g><g transform="translate(524.5594493707797 52.76070264473765) rotate(0 72.82909895218404 0.34457031935903615)"><path d="M120.38 -8.33 C125.81 -7.95, 132.73 -2.39, 147.08 2.04 M118.05 -10.07 C129.01 -5.97, 139.85 -1.14, 146.53 1.4" stroke="#000000" stroke-width="2" fill="none"></path></g></g><g transform="translate(566.5023040771487 30.29473876953182) rotate(0 21.5 10)"><text x="0" y="14" font-family="Virgil, Segoe UI Emoji" font-size="16px" fill="#000000" text-anchor="start" style="white-space: pre;" direction="ltr">builds</text></g></svg>