<svg version="1.1" xmlns="http://www.w3.org/2000/svg" viewBox="0 0 894.3604431152344 327.07928466796943" width="1788.7208862304688" height="654.1585693359389">
  <!-- svg-source:excalidraw -->
  
  <defs>
    <style>
      @font-face {
        font-family: "Virgil";
        src: url("https://excalidraw.com/Virgil.woff2");
      }
      @font-face {
        font-family: "Cascadia";
        src: url("https://excalidraw.com/Cascadia.woff2");
      }
    </style>
  </defs>
  <g stroke-linecap="round" transform="translate(405.5622253417969 71.5816650390625) rotate(0 82.89666748046875 44.13897705078125)"><path d="M22.82 -1.56 L141.97 -2 L157.52 3.79 L163.52 9.19 L163.59 17.18 L166.76 67.7 L164.35 79.06 L158.97 86.47 L145.37 89.25 L23.77 89.57 L8.75 85.84 L1.43 79.2 L-1.29 70.29 L0.89 15.73 L3.96 9.51 L9.12 1.82 L21.44 0.51" stroke="none" stroke-width="0" fill="#fab005"></path><path d="M22.07 0 M22.07 0 C68.64 -2.14, 112.51 -0.79, 143.72 0 M22.07 0 C60.33 -0.53, 96.24 0.31, 143.72 0 M143.72 0 C157.11 0.3, 164.42 7.22, 165.79 22.07 M143.72 0 C157.84 -0.78, 167.95 7.23, 165.79 22.07 M165.79 22.07 C164.01 33.58, 165.06 44.37, 165.79 66.21 M165.79 22.07 C166.65 38.01, 166.14 52.56, 165.79 66.21 M165.79 66.21 C167.23 80.69, 159.65 87.85, 143.72 88.28 M165.79 66.21 C164.68 79.85, 160.47 87.1, 143.72 88.28 M143.72 88.28 C99.77 88.11, 52.6 89.77, 22.07 88.28 M143.72 88.28 C111.18 89.07, 79.05 87.99, 22.07 88.28 M22.07 88.28 C6.37 90, 0.62 79.29, 0 66.21 M22.07 88.28 C9.1 90.22, 0.32 79.09, 0 66.21 M0 66.21 C-0.53 50.68, 0.75 35.6, 0 22.07 M0 66.21 C0.72 55.66, -0.84 45.58, 0 22.07 M0 22.07 C1.5 7.26, 5.7 -1.57, 22.07 0 M0 22.07 C0.31 8.79, 6.33 -0.43, 22.07 0" stroke="#000000" stroke-width="2" fill="none"></path></g><g transform="translate(434.9588928222656 103.22064208984375) rotate(0 53.5 12.5)"><text x="53.5" y="18" font-family="Virgil, Segoe UI Emoji" font-size="20px" fill="#000000" text-anchor="middle" style="white-space: pre;" direction="ltr">gameserver</text></g><g stroke-linecap="round" transform="translate(10 69.78155517578125) rotate(0 84.34912109374994 45.16436767578125)"><path d="M20.73 0.28 L147.08 1.49 L161.54 2.58 L167.32 10.12 L170 18.26 L170.4 69.04 L165.65 82.18 L158.2 86.69 L144.48 89.24 L23.12 89.16 L9.68 88.04 L3.67 80.23 L-0.27 73.55 L1.93 16.79 L4.1 9.29 L7.24 1.41 L22.36 0.17" stroke="none" stroke-width="0" fill="#fab005"></path><path d="M22.58 0 M22.58 0 C65.07 -2.71, 109.44 -2.22, 146.12 0 M22.58 0 C61.25 -0.25, 101.37 0.03, 146.12 0 M146.12 0 C160.31 -0.69, 167.52 5.9, 168.7 22.58 M146.12 0 C161.35 -0.66, 168.24 8.51, 168.7 22.58 M168.7 22.58 C170.24 37.35, 169.11 52.44, 168.7 67.75 M168.7 22.58 C168.49 35.15, 169.86 48.14, 168.7 67.75 M168.7 67.75 C170.19 82.86, 162.16 91.97, 146.12 90.33 M168.7 67.75 C167.81 82.88, 162.19 89.46, 146.12 90.33 M146.12 90.33 C97.78 87.82, 47.07 88.56, 22.58 90.33 M146.12 90.33 C99.19 90.17, 50.9 88.53, 22.58 90.33 M22.58 90.33 C8.76 89.13, -0.11 82, 0 67.75 M22.58 90.33 C8.04 90.88, 1.52 81.14, 0 67.75 M0 67.75 C-0.73 51.35, -0.76 39.23, 0 22.58 M0 67.75 C0.51 55.03, -0.07 40.88, 0 22.58 M0 22.58 C0.91 7.39, 6.95 1.78, 22.58 0 M0 22.58 C1.81 9, 8.72 0.92, 22.58 0" stroke="#000000" stroke-width="2" fill="none"></path></g><g transform="translate(38.34912109375 102.4459228515625) rotate(0 56 12.5)"><text x="56" y="18" font-family="Virgil, Segoe UI Emoji" font-size="20px" fill="#000000" text-anchor="middle" style="white-space: pre;" direction="ltr">scoreserver</text></g><g stroke-linecap="round"><g transform="translate(185.8277434320347 104.80132243326835) rotate(0 105.96196645697063 -0.38788580344834145)"><path d="M-0.11 0.62 C35.62 0.44, 177.94 -1.09, 213.56 -1.39 M-1.63 -0.11 C34.11 -0.1, 177.34 -0.15, 213.18 -0.15" stroke="#000000" stroke-width="2" fill="none"></path></g><g transform="translate(185.8277434320347 104.80132243326835) rotate(0 105.96196645697063 -0.38788580344834145)"><path d="M186.02 11.95 C190.63 9.68, 197.47 6.24, 212.15 1.32 M185.13 9.62 C193.27 6.3, 201.09 3.56, 212.63 -0.48" stroke="#000000" stroke-width="2" fill="none"></path></g><g transform="translate(185.8277434320347 104.80132243326835) rotate(0 105.96196645697063 -0.38788580344834145)"><path d="M186.02 -8.57 C190.57 -6.08, 197.41 -4.77, 212.15 1.32 M185.12 -10.9 C193.17 -8.53, 201 -5.59, 212.63 -0.48" stroke="#000000" stroke-width="2" fill="none"></path></g></g><g transform="translate(220.47134399414062 72.243408203125) rotate(0 65.5 10)"><text x="0" y="14" font-family="Virgil, Segoe UI Emoji" font-size="16px" fill="#000000" text-anchor="start" style="white-space: pre;" direction="ltr">triggers matches</text></g><g stroke-linecap="round"><g transform="translate(396.32528063211294 131.5471252648034) rotate(0 -104.37316405682594 1.3945286036495474)"><path d="M-0.71 -0.08 C-35.55 0.42, -175.07 3.35, -209.87 3.96 M1.12 -1.17 C-33.28 -1.12, -172.36 1.03, -207.65 2.03" stroke="#000000" stroke-width="2" fill="none"></path></g><g transform="translate(396.32528063211294 131.5471252648034) rotate(0 -104.37316405682594 1.3945286036495474)"><path d="M-179.81 -10.37 C-185.51 -7.42, -192.73 -4.64, -205.72 2.6 M-180.44 -9.45 C-189.44 -3.92, -200.63 -0.84, -208.56 1.19" stroke="#000000" stroke-width="2" fill="none"></path></g><g transform="translate(396.32528063211294 131.5471252648034) rotate(0 -104.37316405682594 1.3945286036495474)"><path d="M-179.39 10.15 C-185.34 8.31, -192.67 6.29, -205.72 2.6 M-180.02 11.07 C-189.23 9.1, -200.57 4.67, -208.56 1.19" stroke="#000000" stroke-width="2" fill="none"></path></g></g><g transform="translate(239.67630004882812 141.3123779296875) rotate(0 55.5 10)"><text x="0" y="14" font-family="Virgil, Segoe UI Emoji" font-size="16px" fill="#000000" text-anchor="start" style="white-space: pre;" direction="ltr">returns result</text></g><g stroke-linecap="round" transform="translate(720.9927673339844 10) rotate(0 81.683837890625 41.71832275390625)"><path d="M20.86 0 M20.86 0 C68.69 -0.9, 114.6 -2.71, 142.51 0 M142.51 0 C155.96 -1.64, 162.28 7.49, 163.37 20.86 M163.37 20.86 C164.05 29.65, 162.92 41.53, 163.37 62.58 M163.37 62.58 C164.95 75.98, 157.34 83.9, 142.51 83.44 M142.51 83.44 C115.79 84.21, 89.43 84.74, 20.86 83.44 M20.86 83.44 C6.76 81.62, 1.49 75.15, 0 62.58 M0 62.58 C-0.23 48.76, 2.16 36.18, 0 20.86 M0 20.86 C-0.86 6.26, 5.78 -1.63, 20.86 0" stroke="#000000" stroke-width="2.5" fill="none" stroke-dasharray="8 10"></path></g><g transform="translate(757.9414978027344 27.00933837890625) rotate(0 45.5 25)"><text x="45.5" y="18" font-family="Virgil, Segoe UI Emoji" font-size="20px" fill="#000000" text-anchor="middle" style="white-space: pre;" direction="ltr">Container</text><text x="45.5" y="43" font-family="Virgil, Segoe UI Emoji" font-size="20px" fill="#000000" text-anchor="middle" style="white-space: pre;" direction="ltr">Bot A</text></g><g stroke-linecap="round"><g transform="translate(579.3321328285635 102.75460415071393) rotate(0 67.44553489994382 -22.232165337916086)"><path d="M-0.38 -0.46 C22.23 -7.46, 112.72 -35.11, 135.27 -42.45 M1.62 -1.75 C24.11 -9.02, 112.27 -37.01, 134.34 -44" stroke="#000000" stroke-width="2" fill="none"></path></g><g transform="translate(579.3321328285635 102.75460415071393) rotate(0 67.44553489994382 -22.232165337916086)"><path d="M109.8 -25.65 C118.76 -30.99, 121.65 -36.96, 134.92 -45.56 M111.21 -26.04 C119.23 -32.26, 129.62 -39.12, 135.04 -43.69" stroke="#000000" stroke-width="2" fill="none"></path></g><g transform="translate(579.3321328285635 102.75460415071393) rotate(0 67.44553489994382 -22.232165337916086)"><path d="M103.59 -45.21 C114.13 -45.34, 118.66 -46.12, 134.92 -45.56 M105.01 -45.6 C115.5 -44.26, 128.27 -43.62, 135.04 -43.69" stroke="#000000" stroke-width="2" fill="none"></path></g></g><g stroke-linecap="round"><g transform="translate(580.1183233530865 126.85241622531242) rotate(0 67.04201335186008 32.36212718667471)"><path d="M-0.74 -0.23 C21.78 10.96, 112.41 55.22, 134.82 66.12 M1.07 -1.4 C23.56 9.53, 112.51 53.05, 134.49 64.34" stroke="#000000" stroke-width="2" fill="none"></path></g><g transform="translate(580.1183233530865 126.85241622531242) rotate(0 67.04201335186008 32.36212718667471)"><path d="M104.3 62.89 C113.96 62.17, 120.64 63.94, 134.82 62.71 M104.02 60.61 C114.49 62.8, 123.06 63.5, 134.78 63.66" stroke="#000000" stroke-width="2" fill="none"></path></g><g transform="translate(580.1183233530865 126.85241622531242) rotate(0 67.04201335186008 32.36212718667471)"><path d="M113.47 44.53 C120.45 48.83, 124.59 55.67, 134.82 62.71 M113.19 42.25 C121.12 49.89, 126.98 56.02, 134.78 63.66" stroke="#000000" stroke-width="2" fill="none"></path></g></g><g transform="translate(592.2191010738768 54.16792201361528) rotate(342.72292413803206 40.5 12.5)"><text x="0" y="18" font-family="Virgil, Segoe UI Emoji" font-size="20px" fill="#000000" text-anchor="start" style="white-space: pre;" direction="ltr">manages</text></g><g transform="translate(600.6636822533981 125.78251285246597) rotate(26.27915052103088 40.5 12.5)"><text x="0" y="18" font-family="Virgil, Segoe UI Emoji" font-size="20px" fill="#000000" text-anchor="start" style="white-space: pre;" direction="ltr">manages</text></g><g stroke-linecap="round" transform="translate(37.72857666015682 247.79071044921943) rotate(0 57.3345947265625 34.644287109375)"><path d="M16.7 0.51 L98.93 -0.5 L108.83 2.9 L110.65 5 L114.18 13.43 L115.58 52.68 L113.67 62.33 L106.09 68.34 L96.02 69.59 L15.95 69.15 L6.25 66.18 L4.31 62.41 L-0.59 55.33 L-0.91 11.63 L4.49 3.75 L9.34 1.93 L17.61 -0.41" stroke="none" stroke-width="0" fill="#ced4da"></path><path d="M17.32 0 M17.32 0 C48.2 1.22, 77.85 0.99, 97.35 0 M17.32 0 C40.5 -0.14, 62.65 0.41, 97.35 0 M97.35 0 C109.89 1.64, 113.9 5.84, 114.67 17.32 M97.35 0 C109.92 -0.87, 116.81 7.07, 114.67 17.32 M114.67 17.32 C112.75 24.52, 116.42 34.32, 114.67 51.97 M114.67 17.32 C115.07 24.1, 115.55 31.87, 114.67 51.97 M114.67 51.97 C114.55 62.72, 109.34 69.77, 97.35 69.29 M114.67 51.97 C116.19 61.86, 109.64 68.03, 97.35 69.29 M97.35 69.29 C65.39 70.24, 35.36 67.08, 17.32 69.29 M97.35 69.29 C79.19 69.6, 62.38 69.72, 17.32 69.29 M17.32 69.29 C5.19 71.07, 1.58 64.79, 0 51.97 M17.32 69.29 C6.96 70.21, -0.41 63.3, 0 51.97 M0 51.97 C-1.72 39.38, 0.67 29.63, 0 17.32 M0 51.97 C0.44 39.7, 0.75 26.24, 0 17.32 M0 17.32 C-0.54 7.16, 7.62 -1.13, 17.32 0 M0 17.32 C-1.03 3.77, 3.81 -0.51, 17.32 0" stroke="#000000" stroke-width="2" fill="none"></path></g><g transform="translate(71.48114013671932 269.93499755859443) rotate(0 23 12.5)"><text x="23" y="18" font-family="Virgil, Segoe UI Emoji" font-size="20px" fill="#000000" text-anchor="middle" style="white-space: pre;" direction="ltr">redis</text></g><g stroke-linecap="round"><g transform="translate(95.41251103587547 166.97656335322733) rotate(0 0.1388339068997766 38.284785222334364)"><path d="M1.12 1.17 C1.09 13.73, 0.19 62.36, -0.3 74.62 M0.25 0.74 C0.15 13.51, -0.92 63.32, -0.84 75.83" stroke="#000000" stroke-width="2" fill="none"></path></g></g><g stroke-linecap="round" transform="translate(720.030173165459 148.7873535156258) rotate(0 81.53936767578125 41.19769287109375)"><path d="M20.6 0 M20.6 0 C51.09 1.59, 75.79 1.17, 142.48 0 M142.48 0 C157.34 0.42, 162.42 5.6, 163.08 20.6 M163.08 20.6 C163.5 35.64, 162.7 53.56, 163.08 61.8 M163.08 61.8 C161.76 75.85, 157.26 81.79, 142.48 82.4 M142.48 82.4 C111.39 82.09, 82.31 80.96, 20.6 82.4 M20.6 82.4 C5.16 81.04, -1.89 75.14, 0 61.8 M0 61.8 C-1.65 49.45, 0.6 38.01, 0 20.6 M0 20.6 C1.35 8.03, 7.65 0.31, 20.6 0" stroke="#000000" stroke-width="2.5" fill="none" stroke-dasharray="8 10"></path></g><g transform="translate(757.9377659388965 164.98504638671955) rotate(0 45.5 25)"><text x="45.5" y="18" font-family="Virgil, Segoe UI Emoji" font-size="20px" fill="#000000" text-anchor="middle" style="white-space: pre;" direction="ltr">Container</text><text x="45.5" y="43" font-family="Virgil, Segoe UI Emoji" font-size="20px" fill="#000000" text-anchor="middle" style="white-space: pre;" direction="ltr">Bot B</text></g></svg>