<svg version="1.1" xmlns="http://www.w3.org/2000/svg" viewBox="0 0 216.20197187151393 277.07901000976483" width="432.40394374302787" height="554.1580200195297">
  <!-- svg-source:excalidraw -->
  
  <defs>
    <style>
      @font-face {
        font-family: "Virgil";
        src: url("https://excalidraw.com/Virgil.woff2");
      }
      @font-face {
        font-family: "Cascadia";
        src: url("https://excalidraw.com/Cascadia.woff2");
      }
    </style>
  </defs>
  <g stroke-linecap="round" transform="translate(10 35.181945800780454) rotate(0 80.80029296875011 46.612976074218764)"><path d="M24.97 -0.6 L140.09 1.3 L154.15 4.25 L160.03 10.4 L161.37 18.51 L159.92 69.46 L156.69 83.04 L153.04 88.78 L139.15 94.11 L23.81 91.94 L8.48 90.46 L4.86 83.62 L1.29 75.85 L-1.21 16.07 L5.6 6 L14.02 2.17 L24.74 -0.19" stroke="none" stroke-width="0" fill="#fab005"></path><path d="M23.31 0 M23.31 0 C47.66 -0.61, 71.27 0.25, 138.29 0 M23.31 0 C53.5 -0.28, 83.96 -0.75, 138.29 0 M138.29 0 C153.99 -0.58, 161.2 8.62, 161.6 23.31 M138.29 0 C154.17 -0.47, 163.43 9.65, 161.6 23.31 M161.6 23.31 C161.49 39.79, 161.29 52.89, 161.6 69.92 M161.6 23.31 C162.76 35.14, 162.51 47.74, 161.6 69.92 M161.6 69.92 C160.83 85.52, 154.72 92.47, 138.29 93.23 M161.6 69.92 C163.74 86.75, 152.37 93.47, 138.29 93.23 M138.29 93.23 C115.41 93.28, 87.45 94.17, 23.31 93.23 M138.29 93.23 C94.7 91.71, 49.8 91.91, 23.31 93.23 M23.31 93.23 C8.21 93.71, 1.32 84.02, 0 69.92 M23.31 93.23 C8.51 91.96, 1.99 84.34, 0 69.92 M0 69.92 C0.14 57.52, -1.34 48.7, 0 23.31 M0 69.92 C0.66 52.95, -0.08 37.01, 0 23.31 M0 23.31 C1.58 9.05, 8.8 0.8, 23.31 0 M0 23.31 C-0.41 7.56, 8.88 1.57, 23.31 0" stroke="#000000" stroke-width="2" fill="none"></path></g><g transform="translate(43.21826171875023 69.2949218749992) rotate(0 47 12.5)"><text x="47" y="18" font-family="Virgil, Segoe UI Emoji" font-size="20px" fill="#000000" text-anchor="middle" style="white-space: pre;" direction="ltr">webserver</text></g><g stroke-linecap="round" transform="translate(34.75605773925827 196.31045532226483) rotate(0 57.173828125 35.38427734375)"><path d="M16.05 -1.09 L97.2 -1.17 L108.29 3.37 L112.36 5.63 L113.44 14.06 L115.93 52.58 L112.79 64.32 L105.86 66.51 L96.43 70.94 L18.6 71.48 L8.35 68.09 L0.67 65.34 L-1.05 57.52 L-1.1 13.41 L1.97 6.24 L8.79 2.38 L16.84 -0.69" stroke="none" stroke-width="0" fill="#ced4da"></path><path d="M17.69 0 M17.69 0 C36.16 -0.46, 56.63 0.23, 96.66 0 M17.69 0 C40.06 -0.39, 62.59 -0.76, 96.66 0 M96.66 0 C109.66 -0.43, 113.38 4.96, 114.35 17.69 M96.66 0 C110.48 -1.18, 116.07 5.97, 114.35 17.69 M114.35 17.69 C114.71 30.95, 113.88 44.29, 114.35 53.08 M114.35 17.69 C113.26 29.32, 113.63 43.77, 114.35 53.08 M114.35 53.08 C114.97 63.24, 109.96 72.46, 96.66 70.77 M114.35 53.08 C114.67 63.04, 109.87 69.39, 96.66 70.77 M96.66 70.77 C73.9 72.27, 48.74 71.59, 17.69 70.77 M96.66 70.77 C76.6 69.88, 58.69 70.34, 17.69 70.77 M17.69 70.77 C4.24 69.19, 0.27 66.12, 0 53.08 M17.69 70.77 C4.87 70.34, 1.05 64.71, 0 53.08 M0 53.08 C0.96 44.52, 0.48 33.55, 0 17.69 M0 53.08 C-0.29 42.05, -0.43 32.95, 0 17.69 M0 17.69 C1.79 7.09, 5.98 1.59, 17.69 0 M0 17.69 C1.03 6.33, 7.66 -1.89, 17.69 0" stroke="#000000" stroke-width="2" fill="none"></path></g><g transform="translate(68.34785461425827 219.19473266601483) rotate(0 23 12.5)"><text x="23" y="18" font-family="Virgil, Segoe UI Emoji" font-size="20px" fill="#000000" text-anchor="middle" style="white-space: pre;" direction="ltr">redis</text></g><g stroke-linecap="round"><g transform="translate(91.71371812528105 135.9726245582334) rotate(0 -0.1789387546098169 26.493277325050972)"><path d="M-1.01 -0.67 C-1.15 8.08, -0.29 44.61, -0.3 53.65 M0.66 1.6 C0.39 10.52, -0.42 43.63, -0.84 51.97" stroke="#000000" stroke-width="2" fill="none"></path></g></g><g stroke-linecap="round" transform="translate(108.42328534807643 10) rotate(0 48.88934326171875 23.243728637695312)"><path d="M12.08 0.71 L86.54 -1.82 L92.08 1.72 L97.18 8.87 L99.19 33.93 L96.82 41.78 L94.98 44.27 L85.72 45.65 L9.75 44.63 L5.49 43.46 L1.79 37.1 L-1.58 6.93 L2.91 1.94 L13.24 0.59" stroke="none" stroke-width="0" fill="#fff"></path><path d="M11.62 0 M11.62 0 C41.52 1.19, 68.94 -0.18, 86.16 0 M11.62 0 C34.18 0.17, 55.9 -0.08, 86.16 0 M86.16 0 C95.65 -1.42, 98.82 3.23, 97.78 11.62 M86.16 0 C92.12 1.81, 96.26 3.35, 97.78 11.62 M97.78 11.62 C99.1 16.23, 97.68 20.26, 97.78 34.87 M97.78 11.62 C97.11 16.91, 97.88 21.72, 97.78 34.87 M97.78 34.87 C97.85 43.62, 94.95 46.5, 86.16 46.49 M97.78 34.87 C97.5 44.33, 95.59 48.21, 86.16 46.49 M86.16 46.49 C70.77 48.44, 54.47 45.04, 11.62 46.49 M86.16 46.49 C61.04 46.66, 36.51 46.09, 11.62 46.49 M11.62 46.49 C5.01 46.72, 1.69 41.4, 0 34.87 M11.62 46.49 C5.94 45.83, 1.98 44.28, 0 34.87 M0 34.87 C1.2 27.83, 0.52 18.82, 0 11.62 M0 34.87 C0.31 28.82, -0.19 23.25, 0 11.62 M0 11.62 C1.81 4.01, 5.11 -1.59, 11.62 0 M0 11.62 C-0.35 5.59, 2.7 1.58, 11.62 0" stroke="#000000" stroke-width="4" fill="none"></path></g><g transform="translate(128.39465985979518 24.291976928710938) rotate(0 32.5 10)"><text x="32.5" y="14" font-family="Virgil, Segoe UI Emoji" font-size="16px" fill="#000000" text-anchor="middle" style="white-space: pre;" direction="ltr">frontend</text></g></svg>